
        <svg data-logo="logo" xmlns="http://www.w3.org/2000/svg" viewBox="0 0 394 42">
          <g id="logogram" transform="translate(0, 1) rotate(0)"><path d="M40.0277 20C40.0277 31.0457 31.0734 40 20.0277 40C8.98208 40 0.02771 31.0457 0.02771 20C0.02771 8.95431 8.98208 0 20.0277 0C31.0734 0 40.0277 8.95431 40.0277 20Z" fill="#68DBFF"/><path d="M63.0277 20C63.0277 31.0457 54.0733 40 43.0277 40C31.9821 40 23.0277 31.0457 23.0277 20C23.0277 8.95431 31.9821 0 43.0277 0C54.0733 0 63.0277 8.95431 63.0277 20Z" fill="#FF7917"/><path fill-rule="evenodd" clip-rule="evenodd" d="M31.5277 36.3651C36.6688 32.7457 40.0277 26.7651 40.0277 20C40.0277 13.2349 36.6688 7.25426 31.5277 3.63489C26.3866 7.25426 23.0277 13.2349 23.0277 20C23.0277 26.7651 26.3866 32.7457 31.5277 36.3651Z" fill="#5D2C02"/></g>
          <g id="logotype" transform="translate(70, 0)"><path fill="#121212" d="M16.15 33.14L16.15 33.14Q16.15 34.11 15.58 34.56Q15.01 35 14.08 35L14.08 35L9.14 35Q8.22 35 7.64 34.56Q7.06 34.13 7.06 33.14L7.06 33.14Q7.06 32.32 7.50 31.92Q7.93 31.51 8.46 31.02L8.46 31.02Q8.94 30.57 9.18 30.03Q9.42 29.48 9.62 28.88L9.62 28.88L13.50 17.24Q13.60 16.95 13.70 16.65Q13.79 16.35 13.79 16.03L13.79 16.03Q13.79 15.64 13.53 15.42Q13.26 15.19 12.92 14.96Q12.58 14.73 12.31 14.34Q12.05 13.95 12.05 13.21L12.05 13.21Q12.05 12.24 12.62 11.79Q13.19 11.35 14.12 11.35L14.12 11.35L26.42 11.35Q27.35 11.35 27.92 11.78Q28.49 12.22 28.49 13.21L28.49 13.21Q28.49 13.91 28.25 14.30Q28.01 14.68 27.70 14.90Q27.40 15.12 27.16 15.36Q26.92 15.60 26.92 16.01L26.92 16.01Q26.92 16.30 26.99 16.59Q27.07 16.87 27.16 17.14L27.16 17.14L30.69 27.48Q30.97 28.28 31.13 28.93Q31.29 29.58 31.62 30.14Q31.94 30.69 32.68 31.26L32.68 31.26Q33.26 31.68 33.50 32.03Q33.74 32.39 33.74 33.14L33.74 33.14Q33.74 34.13 33.16 34.56Q32.59 35 31.67 35L31.67 35L22.94 35Q22.01 35 21.43 34.56Q20.85 34.13 20.85 33.14L20.85 33.14Q20.85 32.44 21.15 32.04Q21.45 31.65 21.85 31.42Q22.25 31.19 22.55 30.99Q22.85 30.80 22.85 30.51L22.85 30.51Q22.85 30.27 22.79 30.03Q22.73 29.79 22.65 29.57L22.65 29.57L22.10 27.82L14.10 27.82L14.02 28.06Q13.88 28.47 13.66 28.98Q13.43 29.48 13.43 29.91L13.43 29.91Q13.43 30.39 13.84 30.68Q14.25 30.98 14.79 31.27Q15.33 31.55 15.74 31.98Q16.15 32.40 16.15 33.14ZM18.15 15.45L15.35 24.01L20.89 24.01L18.15 15.45ZM43.72 16.95L43.72 16.95Q44.42 16.95 44.80 17.43Q45.19 17.91 45.19 18.58L45.19 18.58L45.19 29.86Q45.19 30.33 45.23 30.82Q45.27 31.31 45.61 31.67L45.61 31.67Q46.06 32.15 46.36 32.42Q46.66 32.69 46.66 33.44L46.66 33.44Q46.66 34.20 46.19 34.60Q45.72 35 44.98 35L44.98 35L37.72 35Q36.98 35 36.51 34.61Q36.04 34.21 36.04 33.44L36.04 33.44Q36.04 32.71 36.33 32.41Q36.63 32.11 37.09 31.67L37.09 31.67Q37.43 31.33 37.47 30.81Q37.51 30.30 37.51 29.86L37.51 29.86L37.51 23.89Q37.51 23.55 37.46 23.18Q37.41 22.81 37.17 22.56L37.17 22.56Q37.10 22.47 37.01 22.42Q36.92 22.37 36.85 22.30L36.85 22.30Q36.47 21.91 36.16 21.66Q35.84 21.41 35.84 20.78L35.84 20.78Q35.84 20.10 36.27 19.72Q36.69 19.35 37.27 19.12L37.27 19.12L40.97 17.64Q41.62 17.38 42.32 17.17Q43.02 16.95 43.72 16.95ZM41.15 16.88L41.15 16.88Q40.06 16.88 38.95 16.56Q37.84 16.24 37.09 15.47Q36.35 14.71 36.35 13.42L36.35 13.42Q36.35 12.12 37.10 11.37Q37.86 10.63 38.97 10.32Q40.08 10.01 41.15 10.01L41.15 10.01Q42.23 10.01 43.35 10.32Q44.47 10.63 45.23 11.37Q45.99 12.12 45.99 13.42L45.99 13.42Q45.99 14.73 45.24 15.49Q44.49 16.25 43.37 16.57Q42.25 16.88 41.15 16.88ZM64.64 16.95L64.64 16.95Q65.63 16.95 65.87 17.66Q66.12 18.37 66.12 19.16L66.12 19.16Q66.12 19.26 66.12 19.35L66.12 19.35Q67.16 18.29 68.48 17.62Q69.80 16.95 71.42 16.95L71.42 16.95Q73.20 16.95 74.53 17.71Q75.86 18.46 76.74 19.70Q77.62 20.95 78.07 22.50Q78.51 24.05 78.51 25.63L78.51 25.63Q78.51 28.27 77.47 30.51Q76.43 32.76 74.45 34.13Q72.48 35.50 69.68 35.50L69.68 35.50Q67.90 35.50 66.46 34.76L66.46 34.76L66.46 36.61Q66.46 37.20 66.50 37.52Q66.53 37.84 66.70 38.10Q66.87 38.37 67.28 38.81L67.28 38.81Q67.61 39.15 67.76 39.43Q67.92 39.70 67.92 40.20L67.92 40.20Q67.92 40.93 67.44 41.34Q66.96 41.75 66.24 41.75L66.24 41.75L58.96 41.75Q58.23 41.75 57.75 41.36Q57.27 40.96 57.27 40.20L57.27 40.20Q57.27 39.58 57.50 39.27Q57.73 38.96 58.02 38.73Q58.31 38.49 58.54 38.09Q58.77 37.70 58.77 36.93L58.77 36.93L58.77 23.89Q58.77 23.11 58.52 22.72Q58.26 22.34 57.92 22.12Q57.58 21.91 57.32 21.64Q57.06 21.36 57.06 20.78L57.06 20.78Q57.06 20.13 57.52 19.74Q57.97 19.35 58.50 19.12L58.50 19.12L61.88 17.64Q62.53 17.35 63.23 17.15Q63.92 16.95 64.64 16.95ZM67.83 21.40L67.83 21.40Q67.10 21.40 66.46 21.89L66.46 21.89L66.46 30.92Q66.79 31.22 67.18 31.41Q67.57 31.60 68.05 31.60L68.05 31.60Q68.89 31.60 69.39 31.04Q69.90 30.49 70.16 29.65Q70.43 28.81 70.51 27.96Q70.60 27.10 70.60 26.49L70.60 26.49Q70.60 25.82 70.50 24.96Q70.39 24.10 70.10 23.28Q69.81 22.47 69.27 21.93Q68.72 21.40 67.83 21.40ZM80.43 26.81L80.43 26.81Q80.43 24.22 81.43 21.97Q82.44 19.72 84.37 18.34Q86.31 16.95 89.09 16.95L89.09 16.95Q90.77 16.95 92.15 17.67L92.15 17.67L92.15 16.22Q92.15 15.47 91.90 15.09Q91.65 14.71 91.34 14.48Q91.02 14.25 90.77 13.97Q90.53 13.69 90.53 13.13L90.53 13.13Q90.53 12.42 90.95 12.06Q91.36 11.69 91.94 11.47L91.94 11.47L95.65 9.98Q96.30 9.71 96.99 9.50Q97.67 9.30 98.39 9.30L98.39 9.30Q99.09 9.30 99.46 9.78Q99.82 10.27 99.82 10.92L99.82 10.92L99.82 29.98Q99.82 30.81 99.94 31.14Q100.06 31.46 100.64 32.08L100.64 32.08Q100.99 32.44 101.12 32.68Q101.26 32.93 101.26 33.44L101.26 33.44Q101.26 34.18 100.78 34.59Q100.30 35 99.58 35L99.58 35L95.76 35Q94.80 35 93.92 34.41Q93.04 33.82 92.68 32.92L92.68 32.92Q91.64 34.04 90.31 34.77Q88.99 35.50 87.35 35.50L87.35 35.50Q85.60 35.50 84.30 34.74Q82.99 33.97 82.14 32.70Q81.28 31.43 80.85 29.89Q80.43 28.35 80.43 26.81ZM88.36 25.96L88.36 25.96Q88.36 26.57 88.45 27.44Q88.54 28.30 88.81 29.13Q89.07 29.96 89.59 30.51Q90.12 31.07 90.95 31.07L90.95 31.07Q91.60 31.07 92.15 30.63L92.15 30.63L92.15 21.50Q91.86 21.21 91.50 21.03Q91.14 20.85 90.71 20.85L90.71 20.85Q89.93 20.85 89.46 21.42Q88.99 21.99 88.75 22.84Q88.51 23.69 88.43 24.54Q88.36 25.40 88.36 25.96ZM112.76 22.01L112.76 22.01L112.76 29.86Q112.76 31.07 113.09 31.35Q113.43 31.63 114.57 31.77L114.57 31.77Q115.48 31.89 116.01 32.11Q116.54 32.33 116.54 33.44L116.54 33.44Q116.54 34.21 116.08 34.61Q115.61 35 114.86 35L114.86 35L104.35 35Q103.63 35 103.16 34.62Q102.69 34.23 102.69 33.48L102.69 33.48Q102.69 32.61 103.05 32.28Q103.41 31.96 103.88 31.78Q104.35 31.60 104.71 31.21Q105.07 30.81 105.07 29.79L105.07 29.79L105.07 23.19Q105.07 22.56 104.63 22.25Q104.20 21.94 103.63 21.70Q103.07 21.45 102.63 21.05Q102.20 20.64 102.20 19.84L102.20 19.84Q102.20 19.14 102.66 18.77Q103.12 18.41 103.77 18.41L103.77 18.41L105.12 18.41L105.12 18.22Q105.12 18.06 104.62 17.65Q104.11 17.24 103.60 16.59Q103.09 15.94 103.09 15.12L103.09 15.12Q103.09 13.60 103.76 12.55Q104.44 11.50 105.54 10.86Q106.64 10.22 107.96 9.93Q109.27 9.64 110.56 9.64L110.56 9.64Q111.72 9.64 112.95 9.91Q114.18 10.19 115.25 10.78Q116.31 11.36 116.97 12.33Q117.63 13.30 117.63 14.68L117.63 14.68Q117.63 16.08 116.84 16.90Q116.06 17.72 114.64 17.72L114.64 17.72Q113.15 17.72 112.26 16.85Q111.36 15.98 111.36 14.48L111.36 14.48Q111.36 13.96 111.32 13.46Q111.27 12.95 111 12.62Q110.73 12.29 110.04 12.29L110.04 12.29Q109.34 12.29 109.11 12.76Q108.88 13.23 108.88 13.83L108.88 13.83Q108.88 14.51 109.37 15.06Q109.85 15.60 110.50 16.10Q111.14 16.59 111.62 17.12Q112.11 17.64 112.11 18.25L112.11 18.25L112.11 18.41L115.24 18.41Q115.87 18.41 116.33 18.72Q116.79 19.04 116.79 19.74L116.79 19.74Q116.79 20.78 116.11 21.27Q115.43 21.76 114.49 21.88Q113.55 22.01 112.76 22.01ZM136.63 33.14L136.63 33.14Q136.63 34.13 136.05 34.56Q135.47 35 134.55 35L134.55 35L129.42 35Q128.50 35 127.92 34.56Q127.34 34.13 127.34 33.14L127.34 33.14Q127.34 32.23 127.75 31.80Q128.16 31.38 128.71 31.11Q129.25 30.85 129.66 30.46Q130.07 30.08 130.07 29.26L130.07 29.26L130.07 19.00Q130.07 17.82 129.76 17.26Q129.46 16.70 128.64 15.91L128.64 15.91Q128.09 15.36 127.41 14.61Q126.72 13.86 126.72 13.02L126.72 13.02Q126.72 12.22 127.28 11.78Q127.83 11.35 128.59 11.35L128.59 11.35L133.92 11.35Q134.67 11.35 135.11 11.44Q135.54 11.54 135.90 11.81Q136.26 12.08 136.74 12.65L136.74 12.65L147.32 24.78L147.32 17.07Q147.32 16.24 146.91 15.86Q146.50 15.48 145.96 15.23Q145.42 14.97 145.01 14.55Q144.60 14.13 144.60 13.21L144.60 13.21Q144.60 12.22 145.18 11.78Q145.76 11.35 146.68 11.35L146.68 11.35L151.81 11.35Q152.72 11.35 153.31 11.79Q153.90 12.24 153.90 13.21L153.90 13.21Q153.90 14.25 153.39 14.63Q152.89 15.00 152.10 15.48L152.10 15.48Q151.54 15.81 151.35 16.11Q151.16 16.41 151.16 17.07L151.16 17.07L151.16 27.00Q151.16 27.81 151.29 28.63Q151.42 29.46 151.84 30.16L151.84 30.16Q152.25 30.83 152.74 31.57Q153.23 32.32 153.23 33.14L153.23 33.14Q153.23 33.97 152.72 34.49Q152.22 35 151.38 35L151.38 35L145.57 35Q144.85 35 144.42 34.67Q143.98 34.33 143.98 33.56L143.98 33.56Q143.98 33.07 143.49 32.48Q142.99 31.89 142.68 31.53L142.68 31.53L133.92 21.38L133.92 29.26Q133.92 29.94 134.10 30.23Q134.28 30.52 134.86 30.86L134.86 30.86Q135.63 31.34 136.13 31.73Q136.63 32.11 136.63 33.14ZM164.99 16.95L164.99 16.95Q167.81 16.95 169.93 18.12Q172.06 19.28 173.26 21.38Q174.45 23.48 174.45 26.32L174.45 26.32Q174.45 29.10 173.14 31.16Q171.82 33.22 169.61 34.36Q167.40 35.50 164.70 35.50L164.70 35.50Q161.86 35.50 159.72 34.32Q157.59 33.15 156.40 31.03Q155.21 28.90 155.21 26.06L155.21 26.06Q155.21 23.29 156.54 21.24Q157.88 19.19 160.10 18.07Q162.32 16.95 164.99 16.95ZM165.96 31.72L165.96 31.72Q166.39 31.72 166.57 31.27Q166.75 30.83 166.80 30.29Q166.85 29.75 166.85 29.46L166.85 29.46Q166.85 28.49 166.70 27.52Q166.54 26.56 166.30 25.62L166.30 25.62Q166.22 25.24 165.98 24.45Q165.74 23.65 165.40 22.78Q165.06 21.91 164.65 21.29Q164.23 20.68 163.77 20.68L163.77 20.68Q163.38 20.68 163.20 21.12Q163.02 21.57 162.97 22.11Q162.92 22.64 162.92 22.92L162.92 22.92Q162.92 23.38 163.06 24.40Q163.19 25.41 163.46 26.66Q163.72 27.91 164.10 29.06Q164.47 30.21 164.94 30.97Q165.41 31.72 165.96 31.72ZM183.61 35.50L183.61 35.50Q180.69 35.50 179.01 34.14Q177.33 32.78 177.33 29.70L177.33 29.70L177.33 22.27Q177.33 21.53 177.00 21.17Q176.68 20.82 176.25 20.58Q175.82 20.35 175.50 20.02Q175.17 19.69 175.17 19.00L175.17 19.00Q175.17 18.30 175.67 17.90Q176.16 17.50 176.83 17.50L176.83 17.50L177.60 17.50Q178.09 17.50 178.58 17.00Q179.07 16.49 179.57 15.74Q180.08 14.99 180.63 14.24Q181.19 13.50 181.82 13.00Q182.45 12.49 183.20 12.49L183.20 12.49Q184.06 12.49 184.54 12.97Q185.02 13.45 185.02 14.30L185.02 14.30L185.02 17.50L188.90 17.50Q189.54 17.50 190.01 17.81Q190.47 18.12 190.47 18.83L190.47 18.83Q190.47 19.79 189.86 20.29Q189.25 20.78 188.40 20.94Q187.55 21.11 186.79 21.11L186.79 21.11L185.02 21.11L185.02 27.87Q185.02 28.71 185.34 29.45Q185.67 30.20 186.67 30.20L186.67 30.20Q187.34 30.20 187.81 29.81Q188.28 29.43 188.70 29.05Q189.12 28.68 189.60 28.68L189.60 28.68Q190.04 28.68 190.22 29.10Q190.40 29.53 190.40 29.87L190.40 29.87Q190.40 31.60 189.36 32.86Q188.31 34.13 186.75 34.81Q185.19 35.50 183.61 35.50ZM208.74 23.70L208.74 23.70Q208.74 25.22 207.84 26.01Q206.94 26.80 205.47 26.80L205.47 26.80L198.59 26.80Q198.98 28.27 199.99 29.27Q201.00 30.27 202.89 30.27L202.89 30.27Q203.64 30.27 204.39 29.95Q205.13 29.63 205.79 29.21Q206.45 28.78 206.94 28.46Q207.44 28.15 207.69 28.15L207.69 28.15Q208.19 28.15 208.41 28.50Q208.63 28.85 208.63 29.29L208.63 29.29Q208.63 30.85 207.91 32.02Q207.18 33.19 205.99 33.96Q204.81 34.73 203.40 35.11Q201.99 35.50 200.62 35.50L200.62 35.50Q197.94 35.50 195.89 34.38Q193.83 33.27 192.68 31.27Q191.53 29.26 191.53 26.54L191.53 26.54Q191.53 23.64 192.65 21.48Q193.77 19.33 195.87 18.14Q197.97 16.95 200.91 16.95L200.91 16.95Q202.94 16.95 204.73 17.72Q206.52 18.49 207.63 20.00Q208.74 21.50 208.74 23.70ZM198.28 24.17L198.28 24.17Q198.28 24.35 198.28 24.54L198.28 24.54L200.06 24.54Q200.70 24.54 200.94 24.24Q201.18 23.94 201.18 23.33L201.18 23.33Q201.18 22.92 201.08 22.25Q200.98 21.58 200.68 21.05Q200.38 20.52 199.82 20.52L199.82 20.52Q199.30 20.52 199.00 20.94Q198.69 21.36 198.53 21.99Q198.38 22.61 198.33 23.21Q198.28 23.81 198.28 24.17ZM226.34 11.35L226.34 11.35L234.54 11.35Q235.00 11.35 235.47 11.30Q235.93 11.26 236.37 11.16L236.37 11.16Q236.90 11.04 237.42 10.91Q237.94 10.78 238.47 10.78L238.47 10.78Q239.84 10.78 240.39 11.54Q240.93 12.30 241.21 13.48L241.21 13.48L242.15 17.40Q242.23 17.77 242.23 18.10L242.23 18.10Q242.23 18.99 241.67 19.49Q241.10 20.00 240.23 20.00L240.23 20.00Q239.48 20.00 239.05 19.53Q238.61 19.06 238.30 18.37Q237.99 17.69 237.64 17.00Q237.29 16.32 236.72 15.85Q236.15 15.38 235.14 15.38L235.14 15.38L234.65 15.38L234.65 29.41Q234.65 30.11 234.99 30.49Q235.33 30.86 235.76 31.15Q236.20 31.43 236.54 31.86Q236.88 32.30 236.88 33.14L236.88 33.14Q236.88 34.13 236.33 34.56Q235.77 35 234.83 35L234.83 35L226.03 35Q225.11 35 224.54 34.55Q223.98 34.09 223.98 33.12L223.98 33.12Q223.98 32.30 224.32 31.87Q224.66 31.45 225.11 31.15Q225.55 30.86 225.90 30.50Q226.24 30.13 226.24 29.41L226.24 29.41L226.24 15.38L225.74 15.38Q224.73 15.38 224.16 15.85Q223.59 16.32 223.23 17.00Q222.87 17.69 222.56 18.38Q222.25 19.07 221.84 19.54Q221.42 20.01 220.67 20.01L220.67 20.01Q219.78 20.01 219.21 19.51Q218.65 19.00 218.65 18.10L218.65 18.10Q218.65 17.77 218.73 17.40L218.73 17.40L219.66 13.48Q219.95 12.29 220.49 11.54Q221.04 10.78 222.41 10.78L222.41 10.78Q222.90 10.78 223.37 10.90Q223.84 11.02 224.32 11.13L224.32 11.13Q224.82 11.23 225.32 11.29Q225.83 11.35 226.34 11.35ZM241.55 31.07L241.55 31.07Q241.55 29.50 242.28 28.45Q243.02 27.40 244.21 26.75Q245.39 26.11 246.78 25.84Q248.16 25.57 249.44 25.57L249.44 25.57Q249.82 25.57 250.21 25.57Q250.61 25.58 250.98 25.65L250.98 25.65L250.98 21.21Q250.98 20.78 250.80 20.22Q250.62 19.65 250.08 19.65L250.08 19.65Q249.55 19.65 249.42 20.09Q249.29 20.52 249.29 20.92L249.29 20.92Q249.29 21.09 249.30 21.27Q249.31 21.45 249.31 21.64L249.31 21.64Q249.31 23.40 248.09 24.11Q246.88 24.81 245.33 24.81L245.33 24.81Q244.03 24.81 243.07 24.23Q242.11 23.65 242.11 22.18L242.11 22.18Q242.11 21.60 242.34 21.05Q242.57 20.51 242.93 20.08L242.93 20.08Q243.98 18.82 245.56 18.15Q247.14 17.48 248.89 17.24Q250.64 16.99 252.18 16.99L252.18 16.99Q253.92 16.99 255.38 17.48Q256.83 17.98 257.70 19.13Q258.57 20.29 258.57 22.23L258.57 22.23L258.57 30.11Q258.57 30.40 258.71 30.63Q258.84 30.85 259.17 30.85L259.17 30.85Q259.43 30.85 259.60 30.68Q259.78 30.52 260.04 30.52L260.04 30.52Q260.54 30.52 260.78 30.86Q261.03 31.21 261.03 31.67L261.03 31.67Q261.03 32.86 260.31 33.73Q259.58 34.59 258.50 35.04Q257.43 35.50 256.33 35.50L256.33 35.50Q255.05 35.50 253.74 34.93Q252.44 34.37 251.94 33.17L251.94 33.17Q251.07 34.38 249.56 34.94Q248.04 35.50 246.59 35.50L246.59 35.50Q245.26 35.50 244.10 34.99Q242.95 34.49 242.25 33.50Q241.55 32.50 241.55 31.07ZM249.26 29.57L249.26 29.57Q249.26 30.25 249.58 30.86Q249.91 31.46 250.69 31.46L250.69 31.46Q250.85 31.46 250.98 31.43L250.98 31.43L250.98 27.89Q250.69 27.77 250.38 27.77L250.38 27.77Q249.74 27.77 249.50 28.41Q249.26 29.05 249.26 29.57ZM271.70 35L271.70 35L263.61 35Q262.88 35 262.37 34.62Q261.87 34.23 261.87 33.44L261.87 33.44Q261.87 32.86 262.13 32.51Q262.40 32.16 262.84 31.86L262.84 31.86Q263.32 31.51 263.53 31.32Q263.73 31.12 263.78 30.83Q263.83 30.54 263.83 29.96L263.83 29.96L263.83 16.22Q263.83 15.59 263.74 15.31Q263.65 15.04 263.38 14.89Q263.12 14.75 262.59 14.49L262.59 14.49Q262.16 14.29 261.89 13.95Q261.61 13.60 261.61 13.13L261.61 13.13Q261.61 12.44 262.07 12.06Q262.54 11.67 263.10 11.47L263.10 11.47L267.12 9.98Q267.82 9.72 268.53 9.51Q269.25 9.30 269.99 9.30L269.99 9.30Q270.70 9.30 271.11 9.76Q271.52 10.22 271.52 10.92L271.52 10.92L271.52 24.81L275.39 21.74Q275.52 21.64 275.69 21.50Q275.85 21.36 275.85 21.19L275.85 21.19Q275.85 20.88 275.44 20.68Q275.03 20.47 274.62 20.12Q274.21 19.77 274.21 19.04L274.21 19.04Q274.21 18.23 274.71 17.87Q275.22 17.50 275.95 17.50L275.95 17.50L283.01 17.50Q283.74 17.50 284.25 17.87Q284.75 18.23 284.75 19.04L284.75 19.04Q284.75 20.01 284.13 20.38Q283.50 20.75 282.70 20.95L282.70 20.95Q281.74 21.19 280.98 21.48Q280.21 21.77 279.42 22.42L279.42 22.42L278.43 23.23L284.07 30.40Q284.44 30.86 285.07 31.33Q285.69 31.80 286.21 32.33Q286.72 32.86 286.72 33.53L286.72 33.53Q286.72 34.30 286.21 34.65Q285.69 35 284.99 35L284.99 35L276.81 35Q276.10 35 275.68 34.57Q275.25 34.15 275.25 33.44L275.25 33.44Q275.25 32.78 275.64 32.45Q276.02 32.13 276.40 31.92Q276.77 31.70 276.77 31.39L276.77 31.39Q276.77 31.10 276.59 30.88Q276.41 30.66 276.24 30.47L276.24 30.47L273.51 27.21L271.52 28.81L271.52 29.86Q271.52 30.40 271.58 30.93Q271.63 31.46 272.11 31.86L272.11 31.86Q272.60 32.23 272.93 32.47Q273.25 32.71 273.25 33.44L273.25 33.44Q273.25 35 271.70 35ZM303.67 23.70L303.67 23.70Q303.67 25.22 302.77 26.01Q301.88 26.80 300.41 26.80L300.41 26.80L293.52 26.80Q293.91 28.27 294.92 29.27Q295.93 30.27 297.83 30.27L297.83 30.27Q298.58 30.27 299.32 29.95Q300.06 29.63 300.72 29.21Q301.38 28.78 301.88 28.46Q302.37 28.15 302.63 28.15L302.63 28.15Q303.12 28.15 303.35 28.50Q303.57 28.85 303.57 29.29L303.57 29.29Q303.57 30.85 302.84 32.02Q302.12 33.19 300.93 33.96Q299.74 34.73 298.33 35.11Q296.92 35.50 295.55 35.50L295.55 35.50Q292.87 35.50 290.82 34.38Q288.77 33.27 287.61 31.27Q286.46 29.26 286.46 26.54L286.46 26.54Q286.46 23.64 287.58 21.48Q288.70 19.33 290.80 18.14Q292.90 16.95 295.84 16.95L295.84 16.95Q297.88 16.95 299.66 17.72Q301.45 18.49 302.56 20.00Q303.67 21.50 303.67 23.70ZM293.21 24.17L293.21 24.17Q293.21 24.35 293.21 24.54L293.21 24.54L294.99 24.54Q295.64 24.54 295.88 24.24Q296.12 23.94 296.12 23.33L296.12 23.33Q296.12 22.92 296.01 22.25Q295.91 21.58 295.61 21.05Q295.31 20.52 294.75 20.52L294.75 20.52Q294.24 20.52 293.93 20.94Q293.62 21.36 293.47 21.99Q293.31 22.61 293.26 23.21Q293.21 23.81 293.21 24.17ZM314.47 24.87L314.47 24.87L314.47 29.86Q314.47 30.85 314.70 31.19Q314.93 31.53 315.92 31.74L315.92 31.74Q316.80 31.91 317.32 32.14Q317.84 32.37 317.84 33.44L317.84 33.44Q317.84 34.21 317.38 34.61Q316.92 35 316.16 35L316.16 35L307.14 35Q306.41 35 305.93 34.61Q305.45 34.21 305.45 33.44L305.45 33.44Q305.45 32.83 305.68 32.52Q305.91 32.21 306.21 31.97Q306.51 31.72 306.74 31.32Q306.97 30.92 306.97 30.10L306.97 30.10L306.97 23.89Q306.97 23.12 306.70 22.74Q306.44 22.35 306.11 22.13Q305.77 21.91 305.51 21.63Q305.24 21.35 305.24 20.78L305.24 20.78Q305.24 20.11 305.68 19.73Q306.11 19.35 306.68 19.12L306.68 19.12L310.95 17.43Q311.36 17.26 311.79 17.11Q312.22 16.95 312.68 16.95L312.68 16.95Q313.28 16.95 313.57 17.41Q313.86 17.86 313.97 18.45Q314.08 19.04 314.13 19.48L314.13 19.48Q314.18 19.79 314.23 20.10Q314.28 20.41 314.32 20.71L314.32 20.71Q314.85 19.14 315.95 18.05Q317.05 16.95 319.00 16.95L319.00 16.95Q320.38 16.95 321.18 17.64Q321.97 18.32 322.32 19.39Q322.66 20.46 322.66 21.65L322.66 21.65Q322.66 22.76 322.37 23.80Q322.08 24.83 321.35 25.50Q320.62 26.16 319.31 26.16L319.31 26.16Q317.87 26.16 317.21 25.72Q316.56 25.28 316.37 24.63Q316.18 23.98 316.17 23.33Q316.16 22.68 316.06 22.23Q315.96 21.79 315.45 21.79L315.45 21.79Q314.98 21.79 314.78 22.43Q314.57 23.07 314.52 23.81Q314.47 24.54 314.47 24.87Z"/></g>
          
        </svg>
      